<svg xmlns="http://www.w3.org/2000/svg" viewBox="0 0 24 24">
  <rect width="24" height="24" rx="5" fill="#0e1216"/>
  <path d="M12 3.4c.26 3.6 1.18 5.2 3.23 7.26 2.06 2.06 3.67 2.97 7.27 3.24-3.6.26-5.21 1.18-7.27 3.23-2.05 2.06-2.97 3.67-3.23 7.27-.26-3.6-1.18-5.21-3.24-7.27-2.05-2.05-3.66-2.97-7.26-3.23 3.6-.27 5.21-1.18 7.26-3.24C10.82 8.6 11.74 7 12 3.4z" transform="translate(0 -1.5) scale(0.92) translate(1 1.4)" fill="url(#g)"/>
  <defs>
    <linearGradient id="g" x1="0%" y1="0%" x2="100%" y2="100%">
      <stop offset="0%" stop-color="#8fb6dc"/>
      <stop offset="52%" stop-color="#b9ad8e"/>
      <stop offset="100%" stop-color="#dfa371"/>
    </linearGradient>
  </defs>
</svg>
